# xmcd
#
# Track frame offsets:
#	150
#	14439
#	33892
#	48930
#	62816
#	77872
#	92877
#	104760
#	123974
#	143631
#	156695
#	173599
#
# Disc length: 2599 seconds
#
# Revision: 1
# Processed by: cddbd v1.5.2PL0 Copyright (c) Steve Scherf et al.
# Submitted via: audiograbber 1.83.01
#
DISCID=9f0a250c
DTITLE=Leslie Satcher - creation
DYEAR=2005
DGENRE=Country
TTITLE0=Hangin' On By Six Strings
TTITLE1=Conversation With A River
TTITLE2=Texas Rubye featuring Vince Gill
TTITLE3=Blues In A Honkeytonk
TTITLE4=In The Desert Of Waiting
TTITLE5=Love Built Something New
TTITLE6=Creation
TTITLE7=Too Many Horses To Ride
TTITLE8=Untouchable
TTITLE9=San Antone
TTITLE10=That's Alright By Me
TTITLE11=You Remain
EXTD=
EXTT0=
EXTT1=
EXTT2=
EXTT3=
EXTT4=
EXTT5=
EXTT6=
EXTT7=
EXTT8=
EXTT9=
EXTT10=
EXTT11=
PLAYORDER=
